<?xml version="1.0" encoding="UTF-8"?>
<svg width="48px" height="42px" viewBox="0 0 48 42" version="1.1" xmlns="http://www.w3.org/2000/svg" xmlns:xlink="http://www.w3.org/1999/xlink">
    <!-- Generator: Sketch 42 (36781) - http://www.bohemiancoding.com/sketch -->
    <title>Page 1</title>
    <desc>Created with Sketch.</desc>
    <defs></defs>
    <g id="Bloggers" stroke="none" stroke-width="1" fill="none" fill-rule="evenodd">
        <g id="Page-1" fill="#D0011B">
            <path d="M24.0466939,35.5678527 C22.6822557,35.5678527 21.6587865,34.4568673 21.6587865,33.1914747 C21.6587865,31.8953873 22.682162,30.8152833 24.0466939,30.8152833 C25.3182257,30.8152833 26.40357,31.8953873 26.40357,33.1914747 C26.40357,34.4568673 25.3182257,35.5678527 24.0466939,35.5678527 M24.0156626,12.822787 C25.2251319,12.822787 26.2485074,13.5018055 26.2485074,14.7053419 C26.2485074,18.3778073 25.8143509,23.6551746 25.8143509,27.3277333 C25.8143509,28.2844981 24.7599442,28.6855836 24.0156626,28.6855836 C23.0234122,28.6855836 22.1860368,28.2844981 22.1860368,27.3277333 C22.1860368,23.6551746 21.7519741,18.3778073 21.7519741,14.7053419 C21.7519741,13.5018055 22.7442245,12.822787 24.0156626,12.822787 M47.5775797,36.9717919 L26.5185075,2.21571271 C25.9862885,1.33731772 25.0306943,0.800204604 23.9999126,0.800204604 C22.9692246,0.800204604 22.0136304,1.33722442 21.4814114,2.21571271 L0.42243303,36.9717919 C-0.125254722,37.8756571 -0.141473479,39.0031561 0.38015176,39.9223221 C0.901777,40.8413948 1.88033995,41.4098558 2.94102794,41.4098558 L45.0590785,41.4098558 C46.1196728,41.4098558 47.0982357,40.8413015 47.6197672,39.9223221 C48.1414862,39.0030628 48.1252674,37.8756571 47.5775797,36.9717919" id="Fill-1"></path>
        </g>
    </g>
</svg>