<svg xmlns="http://www.w3.org/2000/svg" viewBox="0 0 56.5 56.5"><defs><style>.cls-1{fill:#010101;}.cls-2{fill:#231f20;}</style></defs><title>Asset 1</title><g id="Layer_2" data-name="Layer 2"><g id="Layer_1-2" data-name="Layer 1"><path class="cls-1" d="M28.25,56.5A28.25,28.25,0,1,1,56.5,28.25,28.28,28.28,0,0,1,28.25,56.5Zm0-53.5A25.25,25.25,0,1,0,53.5,28.25,25.28,25.28,0,0,0,28.25,3Z"/><path class="cls-2" d="M12,17.63h9.14v2.89H15.06V27h5.29V29.9H15.06V39H12Z"/><path class="cls-2" d="M25.43,36.16,31,25.72a5.08,5.08,0,0,0,.54-2.83c0-1.08,0-2.38-1.5-2.38a1.4,1.4,0,0,0-1.5,1.53V23.8H25.43V22.11A4.64,4.64,0,0,1,30,17.45c3.19,0,4.54,2.53,4.54,5.38a7.19,7.19,0,0,1-1,4.45L29,36h5.54V39H25.43Z"/><path class="cls-2" d="M41.44,20.88H38.37V17.62h6.14V39H41.44Z"/></g></g></svg>