<?xml version="1.0" encoding="UTF-8"?>
<svg width="25px" height="25px" viewBox="0 0 25 25" version="1.1" xmlns="http://www.w3.org/2000/svg" xmlns:xlink="http://www.w3.org/1999/xlink">
    <!-- Generator: Sketch 42 (36781) - http://www.bohemiancoding.com/sketch -->
    <title>delete copy</title>
    <desc>Created with Sketch.</desc>
    <defs></defs>
    <g id="Symbols" stroke="none" stroke-width="1" fill="none" fill-rule="evenodd">
        <g id="delete-copy">
            <g id="Group-4" transform="translate(12.500000, 12.500000) rotate(-180.000000) translate(-12.500000, -12.500000) translate(0.000000, 0.000000)" fill="#111111">
                <g id="Group-21">
                    <ellipse id="Mask" cx="12.5" cy="12.5" rx="12.5" ry="12.5"></ellipse>
                </g>
            </g>
            <path d="M12.2229247,17.3784047 L7.11666327,12.2524957 C6.96410361,12.0993491 6.96410361,11.8561161 7.11666327,11.7029695 C7.26922292,11.5498228 7.51152356,11.5498228 7.66408321,11.7029695 L12.1062615,16.1712486 L12.1062615,8.70309654 C12.1062615,8.48688948 12.2767693,8.31572556 12.4921477,8.31572556 C12.707526,8.31572556 12.8780339,8.48688948 12.8780339,8.70309654 L12.8780339,16.16224 L17.3381603,11.7029695 C17.49072,11.5498228 17.7330206,11.5498228 17.8855803,11.7029695 C18.0381399,11.8561161 18.0381399,12.0993491 17.8855803,12.2524957 L12.7793188,17.3784047 C12.7434224,17.4144392 12.6985519,17.4414651 12.6536814,17.4594824 L12.6447073,17.4594824 C12.5998368,17.4774996 12.5549663,17.4865082 12.5011218,17.4865082 C12.4472772,17.4865082 12.4024067,17.4774996 12.3575362,17.4594824 L12.3485621,17.4594824 C12.3036916,17.4414651 12.2588211,17.4144392 12.2229247,17.3784047 Z M7.38588619,7.77474196 L7.38588619,7.77474196 C7.17050785,7.77474196 7,7.59456941 7,7.38737098 C7,7.17116392 7.17050785,7 7.38588619,7 L17.5984091,7 C17.8137875,7 17.9842953,7.17116392 17.9842953,7.38737098 C17.9842953,7.60357803 17.8137875,7.77474196 17.5984091,7.77474196 L7.38588619,7.77474196 Z" id="download" stroke="#FFFFFF" stroke-width="0.5" fill="#FFFFFF" transform="translate(12.500000, 12.243254) rotate(-360.000000) translate(-12.500000, -12.243254) "></path>
        </g>
    </g>
</svg>