<?xml version="1.0" encoding="UTF-8"?>
<svg width="132px" height="255px" viewBox="0 0 132 255" version="1.1" xmlns="http://www.w3.org/2000/svg" xmlns:xlink="http://www.w3.org/1999/xlink">
    <!-- Generator: Sketch 42 (36781) - http://www.bohemiancoding.com/sketch -->
    <title>Artboard</title>
    <desc>Created with Sketch.</desc>
    <defs></defs>
    <g id="Symbols" stroke="none" stroke-width="1" fill="none" fill-rule="evenodd">
        <g id="Artboard" stroke-width="4">
            <path d="M43.2073997,197.566654 C41.7885654,196.149527 39.4829599,196.149527 38.0641257,197.566654 C36.6452914,198.983781 36.6452914,201.286613 38.0641257,202.70374 L54.8241047,219.443554 C55.5335218,220.152117 56.4202932,220.506399 57.3957417,220.506399 L57.573096,220.506399 C58.5485445,220.417829 59.523993,219.974976 60.2334101,219.177842 L102.177696,168.9584 C103.419176,167.452703 103.241822,165.149871 101.734311,163.821314 C100.226799,162.581328 97.9211937,162.758469 96.5910367,164.264166 L57.1297103,211.472214 L43.2073997,197.566654 L43.2073997,197.566654 Z" id="Shape" stroke="#4A4A4A" fill="#4A4A4A"></path>
            <path d="M43.2073997,51.5666538 C41.7885654,50.1495267 39.4829599,50.1495267 38.0641257,51.5666538 C36.6452914,52.9837809 36.6452914,55.2866125 38.0641257,56.7037396 L54.8241047,73.4435537 C55.5335218,74.1521173 56.4202932,74.5063991 57.3957417,74.5063991 L57.573096,74.5063991 C58.5485445,74.4178286 59.523993,73.9749764 60.2334101,73.1778424 L102.177696,22.9584001 C103.419176,21.4527025 103.241822,19.1498709 101.734311,17.8213143 C100.226799,16.581328 97.9211937,16.7584689 96.5910367,18.2641665 L57.1297103,65.4722137 L43.2073997,51.5666538 L43.2073997,51.5666538 Z" id="Shape" stroke="#EF5F96" fill="#EF5F96"></path>
        </g>
    </g>
</svg>