<?xml version="1.0" encoding="UTF-8"?>
<svg width="25px" height="25px" viewBox="0 0 25 25" version="1.1" xmlns="http://www.w3.org/2000/svg" xmlns:xlink="http://www.w3.org/1999/xlink">
    <!-- Generator: Sketch 42 (36781) - http://www.bohemiancoding.com/sketch -->
    <title>Group 4</title>
    <desc>Created with Sketch.</desc>
    <defs></defs>
    <g id="Symbols" stroke="none" stroke-width="1" fill="none" fill-rule="evenodd">
        <g id="delete">
            <g id="Group-4">
                <g id="Group-21" fill="#111111">
                    <ellipse id="Mask" cx="12.5" cy="12.5" rx="12.5" ry="12.5"></ellipse>
                </g>
                <path d="M7.07831325,9.15877117 L7.53012048,9.15877117 L8.58433735,17.9715762 C8.60441767,18.1826012 8.78514056,18.3333333 8.99598394,18.3333333 L16.0040161,18.3333333 C16.2148594,18.3333333 16.3855422,18.1826012 16.4156627,17.9715762 L17.4698795,9.15877117 L17.9216867,9.15877117 C18.1526104,9.15877117 18.3333333,8.97789262 18.3333333,8.74677003 C18.3333333,8.51564743 18.1526104,8.33476888 17.9216867,8.33476888 L17.0983936,8.33476888 L14.7690763,8.33476888 L14.7690763,7.07866782 C14.7690763,6.84754522 14.5883534,6.66666667 14.3574297,6.66666667 L10.6425703,6.66666667 C10.4116466,6.66666667 10.2309237,6.84754522 10.2309237,7.07866782 L10.2309237,8.33476888 L7.90160643,8.33476888 L7.07831325,8.33476888 C6.84738956,8.33476888 6.66666667,8.51564743 6.66666667,8.74677003 C6.66666667,8.97789262 6.85742972,9.15877117 7.07831325,9.15877117 L7.07831325,9.15877117 Z M11.0542169,7.49066896 L13.9457831,7.49066896 L13.9457831,8.33476888 L11.0542169,8.33476888 L11.0542169,7.49066896 L11.0542169,7.49066896 Z M16.6365462,9.15877117 L15.6425703,17.5193798 L9.35742972,17.5193798 L8.36345382,9.15877117 L16.6365462,9.15877117 L16.6365462,9.15877117 Z M11.1345382,16.2632788 C11.3654618,16.2632788 11.5461847,16.0824002 11.5461847,15.8512776 L11.5461847,10.9173127 C11.5461847,10.6861901 11.3654618,10.5053115 11.1345382,10.5053115 C10.9036145,10.5053115 10.7228916,10.6861901 10.7228916,10.9173127 L10.7228916,15.8512776 C10.7228916,16.0824002 10.9036145,16.2632788 11.1345382,16.2632788 Z M13.8654618,16.2632788 C14.0963855,16.2632788 14.2771084,16.0824002 14.2771084,15.8512776 L14.2771084,10.9173127 C14.2771084,10.6861901 14.0963855,10.5053115 13.8654618,10.5053115 C13.6345382,10.5053115 13.4538153,10.6861901 13.4538153,10.9173127 L13.4538153,15.8512776 C13.4538153,16.0824002 13.6445783,16.2632788 13.8654618,16.2632788 Z" id="garbage" stroke="#FFFFFF" stroke-width="0.5" fill="#FFFFFF"></path>
            </g>
        </g>
    </g>
</svg>