<?xml version="1.0" encoding="UTF-8"?>
<svg width="25px" height="25px" viewBox="0 0 25 25" version="1.1" xmlns="http://www.w3.org/2000/svg" xmlns:xlink="http://www.w3.org/1999/xlink">
    <!-- Generator: Sketch 42 (36781) - http://www.bohemiancoding.com/sketch -->
    <title>black edit</title>
    <desc>Created with Sketch.</desc>
    <defs></defs>
    <g id="Symbols" stroke="none" stroke-width="1" fill="none" fill-rule="evenodd">
        <g id="black-edit">
            <g id="Group-21">
                <ellipse id="Mask" fill="#111111" cx="12.5" cy="12.5" rx="12.5" ry="12.5"></ellipse>
                <path d="M6.74488467,15.8229638 L6.74488467,15.8229638 C6.74488467,15.6674208 6.81546185,15.5260181 6.9142699,15.4128959 L14.4801438,7.84785068 L16.3716123,5.93891403 C16.6115747,5.71266968 16.9785761,5.71266968 17.204423,5.93891403 L19.9145868,8.6821267 C20.1404338,8.92251131 20.1404338,9.29015837 19.9145868,9.51640271 L10.4572444,18.9903846 C10.344321,19.1035068 10.2031666,19.1600679 10.0478968,19.1600679 L7.30950212,19.1742081 C7.15423232,19.1742081 7.01307796,19.1176471 6.90015447,19.0045249 C6.78723098,18.8914027 6.73076923,18.7358597 6.73076923,18.5803167 L6.74488467,15.8229638 Z M16.7950754,7.18325792 L15.7223022,8.25791855 L17.6278861,10.1668552 L18.7006593,9.09219457 L16.7950754,7.18325792 Z M7.91646589,16.0774887 L7.91646589,16.0774887 L7.90235045,17.9864253 L9.8220498,17.9722851 L16.7950754,11.0011312 L14.8894915,9.09219457 L7.91646589,16.0774887 Z" id="edit" fill="#FFFFFF"></path>
            </g>
        </g>
    </g>
</svg>