<?xml version="1.0" encoding="utf-8"?>
<!-- Generator: Adobe Illustrator 21.0.2, SVG Export Plug-In . SVG Version: 6.00 Build 0)  -->
<svg version="1.1" id="Layer_1" xmlns="http://www.w3.org/2000/svg" xmlns:xlink="http://www.w3.org/1999/xlink" x="0px" y="0px"
	 viewBox="0 0 50 50" style="enable-background:new 0 0 50 50;" xml:space="preserve">
<style type="text/css">
	.st0{display:none;}
	.st1{display:inline;fill:none;stroke:#000000;stroke-width:5;stroke-miterlimit:10;}
	.st2{display:inline;stroke:#000000;stroke-width:5;stroke-miterlimit:10;}
	.st3{display:inline;}
</style>
<g class="st0">
	<path class="st1" d="M40.7,5.9c-1.8-1.1-3.8-1.7-6-1.7c-3.9,0-7.3,1.9-9.6,4.9c-2.3-3-5.8-4.9-9.6-4.9c-2.2,0-4.2,0.6-6,1.7
		c-3.9,2.3-6.5,6.7-6.5,11.8c0,1.5,0.2,2.9,0.6,4.2C5.6,32.3,25,45.5,25,45.5s19.4-13.1,21.5-23.6c0.4-1.3,0.6-2.7,0.6-4.2
		C47.1,12.6,44.5,8.2,40.7,5.9L40.7,5.9z M40.7,5.9"/>
</g>
<g class="st0">
	<path class="st2" d="M40.7,5.9c-1.8-1.1-3.8-1.7-6-1.7c-3.9,0-7.3,1.9-9.6,4.9c-2.3-3-5.8-4.9-9.6-4.9c-2.2,0-4.2,0.6-6,1.7
		c-3.9,2.3-6.5,6.7-6.5,11.8c0,1.5,0.2,2.9,0.6,4.2C5.6,32.3,25,45.5,25,45.5s19.4-13.1,21.5-23.6c0.4-1.3,0.6-2.7,0.6-4.2
		C47.1,12.6,44.5,8.2,40.7,5.9L40.7,5.9z M40.7,5.9"/>
</g>
<g class="st0">
	<g class="st3">
		<g>
			<circle cx="24.9" cy="19.6" r="8.1"/>
		</g>
		<g>
			<path d="M38.3,39.4c0,0,0.9,7.5-13.4,7.5s-13.4-7.5-13.4-7.5c0-5.6,6-10.2,13.4-10.2S38.3,33.8,38.3,39.4z"/>
		</g>
	</g>
	<circle class="st1" cx="24.9" cy="25.1" r="20.9"/>
</g>
<g>
	<rect x="1.6" y="41.5" width="46.6" height="7"/>
	<rect x="1.6" y="1.8" width="46.6" height="7"/>
	<rect x="1.6" y="21.6" width="46.6" height="7"/>
</g>
<g class="st0">
	<path class="st1" d="M12,18c0-7.5,5.8-13.7,12.9-13.7S37.8,10.4,37.8,18"/>
	<g class="st3">
		<path d="M43.2,19.1v24.3H6.6V19.1H43.2 M48.2,14.1H1.6v34.3h46.6V14.1L48.2,14.1z"/>
	</g>
</g>
<g class="st0">
	<g class="st3">
		<path d="M23.4,6.8c8.9,0,16.1,7.2,16.1,16.1s-7.2,16.1-16.1,16.1S7.3,31.7,7.3,22.8S14.5,6.8,23.4,6.8 M23.4,1.8
			c-11.6,0-21.1,9.4-21.1,21.1s9.4,21.1,21.1,21.1s21.1-9.4,21.1-21.1S35,1.8,23.4,1.8L23.4,1.8z"/>
	</g>
	<g class="st3">
		<polygon points="37.8,35.6 35,38.4 44.9,48.3 47.7,45.5 37.8,35.6 		"/>
	</g>
</g>
</svg>
